<mxfile host="app.diagrams.net" agent="Mozilla/5.0 (Windows NT 10.0; Win64; x64) AppleWebKit/537.36 (KHTML, like Gecko) Chrome/128.0.0.0 YaBrowser/24.10.0.0 Safari/537.36" version="24.9.3">
  <diagram name="Страница — 1" id="8tjsF_M7jsW_yo7aEp5X">
    <mxGraphModel dx="1173" dy="608" grid="1" gridSize="10" guides="1" tooltips="1" connect="1" arrows="1" fold="1" page="1" pageScale="1" pageWidth="827" pageHeight="1169" math="0" shadow="0">
      <root>
        <mxCell id="0" />
        <mxCell id="1" parent="0" />
        <mxCell id="qT1Ez9X6jO3HV0hjLNi6-5" value="GuardedObject" style="swimlane;fontStyle=1;align=center;verticalAlign=top;childLayout=stackLayout;horizontal=1;startSize=26;horizontalStack=0;resizeParent=1;resizeParentMax=0;resizeLast=0;collapsible=1;marginBottom=0;whiteSpace=wrap;html=1;" parent="1" vertex="1">
          <mxGeometry x="30" y="430" width="220" height="212" as="geometry" />
        </mxCell>
        <mxCell id="qT1Ez9X6jO3HV0hjLNi6-6" value="+ geo: GeoCoordinate&amp;nbsp;&lt;br&gt;owner id: int&lt;div&gt;List&amp;lt;Device&amp;gt;&lt;br&gt;&lt;div&gt;&lt;br&gt;&lt;/div&gt;&lt;/div&gt;" style="text;strokeColor=none;fillColor=none;align=left;verticalAlign=top;spacingLeft=4;spacingRight=4;overflow=hidden;rotatable=0;points=[[0,0.5],[1,0.5]];portConstraint=eastwest;whiteSpace=wrap;html=1;" parent="qT1Ez9X6jO3HV0hjLNi6-5" vertex="1">
          <mxGeometry y="26" width="220" height="84" as="geometry" />
        </mxCell>
        <mxCell id="qT1Ez9X6jO3HV0hjLNi6-7" value="" style="line;strokeWidth=1;fillColor=none;align=left;verticalAlign=middle;spacingTop=-1;spacingLeft=3;spacingRight=3;rotatable=0;labelPosition=right;points=[];portConstraint=eastwest;strokeColor=inherit;" parent="qT1Ez9X6jO3HV0hjLNi6-5" vertex="1">
          <mxGeometry y="110" width="220" height="10" as="geometry" />
        </mxCell>
        <mxCell id="qT1Ez9X6jO3HV0hjLNi6-8" value="+ method(type): type" style="text;strokeColor=none;fillColor=none;align=left;verticalAlign=top;spacingLeft=4;spacingRight=4;overflow=hidden;rotatable=0;points=[[0,0.5],[1,0.5]];portConstraint=eastwest;whiteSpace=wrap;html=1;" parent="qT1Ez9X6jO3HV0hjLNi6-5" vertex="1">
          <mxGeometry y="120" width="220" height="92" as="geometry" />
        </mxCell>
        <mxCell id="qT1Ez9X6jO3HV0hjLNi6-9" value="пользователь" style="swimlane;fontStyle=1;align=center;verticalAlign=top;childLayout=stackLayout;horizontal=1;startSize=26;horizontalStack=0;resizeParent=1;resizeParentMax=0;resizeLast=0;collapsible=1;marginBottom=0;whiteSpace=wrap;html=1;" parent="1" vertex="1">
          <mxGeometry x="20" y="20" width="230" height="170" as="geometry">
            <mxRectangle x="40" y="70" width="120" height="30" as="alternateBounds" />
          </mxGeometry>
        </mxCell>
        <mxCell id="qT1Ez9X6jO3HV0hjLNi6-10" value="+ name: String&lt;div&gt;+ email: String&lt;br&gt;&lt;div&gt;+ login: String&lt;br&gt;&lt;div&gt;+ adress: String&lt;/div&gt;&lt;div&gt;+ numberOfPhone: int&lt;/div&gt;&lt;div&gt;+ List&amp;lt;&lt;span style=&quot;text-align: center; background-color: initial;&quot;&gt;GuardedObject&lt;/span&gt;&lt;span style=&quot;background-color: initial;&quot;&gt;&amp;gt;&lt;/span&gt;&lt;/div&gt;&lt;div&gt;&lt;span style=&quot;background-color: initial;&quot;&gt;&lt;br&gt;&lt;/span&gt;&lt;/div&gt;&lt;div&gt;&lt;span style=&quot;background-color: initial;&quot;&gt;&lt;br&gt;&lt;/span&gt;&lt;/div&gt;&lt;div&gt;&lt;span style=&quot;background-color: initial;&quot;&gt;&lt;br&gt;&lt;/span&gt;&lt;/div&gt;&lt;div&gt;&lt;br&gt;&lt;/div&gt;&lt;/div&gt;&lt;/div&gt;" style="text;strokeColor=none;fillColor=none;align=left;verticalAlign=top;spacingLeft=4;spacingRight=4;overflow=hidden;rotatable=0;points=[[0,0.5],[1,0.5]];portConstraint=eastwest;whiteSpace=wrap;html=1;" parent="qT1Ez9X6jO3HV0hjLNi6-9" vertex="1">
          <mxGeometry y="26" width="230" height="104" as="geometry" />
        </mxCell>
        <mxCell id="qT1Ez9X6jO3HV0hjLNi6-11" value="" style="line;strokeWidth=1;fillColor=none;align=left;verticalAlign=middle;spacingTop=-1;spacingLeft=3;spacingRight=3;rotatable=0;labelPosition=right;points=[];portConstraint=eastwest;strokeColor=inherit;" parent="qT1Ez9X6jO3HV0hjLNi6-9" vertex="1">
          <mxGeometry y="130" width="230" height="10" as="geometry" />
        </mxCell>
        <mxCell id="u9B3ksHWgTqDFR15Z2h7-7" value="GetGuardedObj: List&amp;lt;GuardedObject&amp;gt;" style="text;html=1;align=center;verticalAlign=middle;resizable=0;points=[];autosize=1;strokeColor=none;fillColor=none;" vertex="1" parent="qT1Ez9X6jO3HV0hjLNi6-9">
          <mxGeometry y="140" width="230" height="30" as="geometry" />
        </mxCell>
        <mxCell id="qT1Ez9X6jO3HV0hjLNi6-13" value="Device" style="swimlane;fontStyle=1;align=center;verticalAlign=top;childLayout=stackLayout;horizontal=1;startSize=26;horizontalStack=0;resizeParent=1;resizeParentMax=0;resizeLast=0;collapsible=1;marginBottom=0;whiteSpace=wrap;html=1;" parent="1" vertex="1">
          <mxGeometry x="620" y="60" width="190" height="250" as="geometry">
            <mxRectangle x="620" y="60" width="80" height="30" as="alternateBounds" />
          </mxGeometry>
        </mxCell>
        <mxCell id="qT1Ez9X6jO3HV0hjLNi6-14" value="+ geo: GeoCoordinate&lt;div&gt;&lt;span style=&quot;background-color: initial;&quot;&gt;+ DeviceType: String&lt;/span&gt;&lt;br&gt;&lt;/div&gt;&lt;div&gt;&lt;span style=&quot;background-color: initial;&quot;&gt;+ state: boolean&lt;/span&gt;&lt;/div&gt;&lt;div&gt;&lt;span style=&quot;background-color: initial;&quot;&gt;+ Recording: File&lt;/span&gt;&lt;/div&gt;&lt;div&gt;&lt;br&gt;&lt;/div&gt;" style="text;strokeColor=none;fillColor=none;align=left;verticalAlign=top;spacingLeft=4;spacingRight=4;overflow=hidden;rotatable=0;points=[[0,0.5],[1,0.5]];portConstraint=eastwest;whiteSpace=wrap;html=1;" parent="qT1Ez9X6jO3HV0hjLNi6-13" vertex="1">
          <mxGeometry y="26" width="190" height="74" as="geometry" />
        </mxCell>
        <mxCell id="qT1Ez9X6jO3HV0hjLNi6-15" value="" style="line;strokeWidth=1;fillColor=none;align=left;verticalAlign=middle;spacingTop=-1;spacingLeft=3;spacingRight=3;rotatable=0;labelPosition=right;points=[];portConstraint=eastwest;strokeColor=inherit;" parent="qT1Ez9X6jO3HV0hjLNi6-13" vertex="1">
          <mxGeometry y="100" width="190" height="20" as="geometry" />
        </mxCell>
        <mxCell id="qT1Ez9X6jO3HV0hjLNi6-16" value="&lt;div&gt;&lt;div&gt;GetGeo(geo):&amp;nbsp;&lt;span style=&quot;background-color: initial;&quot;&gt;GeoCoordinate&lt;/span&gt;&lt;/div&gt;&lt;/div&gt;&lt;div&gt;&lt;span style=&quot;background-color: initial;&quot;&gt;&lt;br&gt;&lt;/span&gt;&lt;/div&gt;&lt;div&gt;isOn(state): boolean&lt;/div&gt;&lt;div&gt;&lt;br&gt;&lt;/div&gt;&lt;div&gt;ReactToEvent()&lt;/div&gt;" style="text;strokeColor=none;fillColor=none;align=left;verticalAlign=top;spacingLeft=4;spacingRight=4;overflow=hidden;rotatable=0;points=[[0,0.5],[1,0.5]];portConstraint=eastwest;whiteSpace=wrap;html=1;" parent="qT1Ez9X6jO3HV0hjLNi6-13" vertex="1">
          <mxGeometry y="120" width="190" height="130" as="geometry" />
        </mxCell>
        <mxCell id="qT1Ez9X6jO3HV0hjLNi6-17" value="emergencyService" style="swimlane;fontStyle=1;align=center;verticalAlign=top;childLayout=stackLayout;horizontal=1;startSize=26;horizontalStack=0;resizeParent=1;resizeParentMax=0;resizeLast=0;collapsible=1;marginBottom=0;whiteSpace=wrap;html=1;" parent="1" vertex="1">
          <mxGeometry x="270" y="20" width="130" height="190" as="geometry" />
        </mxCell>
        <mxCell id="qT1Ez9X6jO3HV0hjLNi6-18" value="&lt;div&gt;+ServiceNumber: int&lt;/div&gt;&lt;div&gt;+adressOffice: String&lt;/div&gt;&lt;div&gt;+name: String&lt;/div&gt;&lt;div&gt;&lt;br&gt;&lt;/div&gt;&lt;div&gt;&lt;br&gt;&lt;/div&gt;&lt;div&gt;&lt;br&gt;&lt;/div&gt;" style="text;strokeColor=none;fillColor=none;align=left;verticalAlign=top;spacingLeft=4;spacingRight=4;overflow=hidden;rotatable=0;points=[[0,0.5],[1,0.5]];portConstraint=eastwest;whiteSpace=wrap;html=1;" parent="qT1Ez9X6jO3HV0hjLNi6-17" vertex="1">
          <mxGeometry y="26" width="130" height="144" as="geometry" />
        </mxCell>
        <mxCell id="qT1Ez9X6jO3HV0hjLNi6-19" value="" style="line;strokeWidth=1;fillColor=none;align=left;verticalAlign=middle;spacingTop=-1;spacingLeft=3;spacingRight=3;rotatable=0;labelPosition=right;points=[];portConstraint=eastwest;strokeColor=inherit;" parent="qT1Ez9X6jO3HV0hjLNi6-17" vertex="1">
          <mxGeometry y="170" width="130" height="20" as="geometry" />
        </mxCell>
        <mxCell id="qT1Ez9X6jO3HV0hjLNi6-26" value="AnalysSystem" style="swimlane;fontStyle=1;align=center;verticalAlign=top;childLayout=stackLayout;horizontal=1;startSize=26;horizontalStack=0;resizeParent=1;resizeParentMax=0;resizeLast=0;collapsible=1;marginBottom=0;whiteSpace=wrap;html=1;" parent="1" vertex="1">
          <mxGeometry x="270" y="220" width="220" height="240" as="geometry" />
        </mxCell>
        <mxCell id="qT1Ez9X6jO3HV0hjLNi6-27" value="&lt;div&gt;+ trigger: boolean&lt;/div&gt;&lt;div&gt;&amp;nbsp;&lt;/div&gt;&lt;div&gt;+&amp;nbsp;&lt;/div&gt;" style="text;strokeColor=none;fillColor=none;align=left;verticalAlign=top;spacingLeft=4;spacingRight=4;overflow=hidden;rotatable=0;points=[[0,0.5],[1,0.5]];portConstraint=eastwest;whiteSpace=wrap;html=1;" parent="qT1Ez9X6jO3HV0hjLNi6-26" vertex="1">
          <mxGeometry y="26" width="220" height="124" as="geometry" />
        </mxCell>
        <mxCell id="qT1Ez9X6jO3HV0hjLNi6-28" value="" style="line;strokeWidth=1;fillColor=none;align=left;verticalAlign=middle;spacingTop=-1;spacingLeft=3;spacingRight=3;rotatable=0;labelPosition=right;points=[];portConstraint=eastwest;strokeColor=inherit;" parent="qT1Ez9X6jO3HV0hjLNi6-26" vertex="1">
          <mxGeometry y="150" width="220" height="20" as="geometry" />
        </mxCell>
        <mxCell id="qT1Ez9X6jO3HV0hjLNi6-29" value="||| AlarmOn(trigger): void&lt;div&gt;AlarmOff(&lt;span style=&quot;background-color: initial;&quot;&gt;trigger&lt;/span&gt;&lt;span style=&quot;background-color: initial;&quot;&gt;): void&lt;/span&gt;&lt;/div&gt;&lt;div&gt;&lt;span style=&quot;background-color: initial;&quot;&gt;ChangeTrigger( ): ||||&lt;/span&gt;&lt;/div&gt;" style="text;strokeColor=none;fillColor=none;align=left;verticalAlign=top;spacingLeft=4;spacingRight=4;overflow=hidden;rotatable=0;points=[[0,0.5],[1,0.5]];portConstraint=eastwest;whiteSpace=wrap;html=1;" parent="qT1Ez9X6jO3HV0hjLNi6-26" vertex="1">
          <mxGeometry y="170" width="220" height="70" as="geometry" />
        </mxCell>
        <mxCell id="u9B3ksHWgTqDFR15Z2h7-2" value="emergency" style="swimlane;fontStyle=1;align=center;verticalAlign=top;childLayout=stackLayout;horizontal=1;startSize=26;horizontalStack=0;resizeParent=1;resizeParentMax=0;resizeLast=0;collapsible=1;marginBottom=0;whiteSpace=wrap;html=1;" vertex="1" parent="1">
          <mxGeometry x="410" y="20" width="140" height="120" as="geometry" />
        </mxCell>
        <mxCell id="u9B3ksHWgTqDFR15Z2h7-3" value="&lt;div&gt;&lt;br&gt;&lt;/div&gt;" style="text;strokeColor=none;fillColor=none;align=left;verticalAlign=top;spacingLeft=4;spacingRight=4;overflow=hidden;rotatable=0;points=[[0,0.5],[1,0.5]];portConstraint=eastwest;whiteSpace=wrap;html=1;" vertex="1" parent="u9B3ksHWgTqDFR15Z2h7-2">
          <mxGeometry y="26" width="140" height="26" as="geometry" />
        </mxCell>
        <mxCell id="u9B3ksHWgTqDFR15Z2h7-4" value="" style="line;strokeWidth=1;fillColor=none;align=left;verticalAlign=middle;spacingTop=-1;spacingLeft=3;spacingRight=3;rotatable=0;labelPosition=right;points=[];portConstraint=eastwest;strokeColor=inherit;" vertex="1" parent="u9B3ksHWgTqDFR15Z2h7-2">
          <mxGeometry y="52" width="140" height="18" as="geometry" />
        </mxCell>
        <mxCell id="u9B3ksHWgTqDFR15Z2h7-5" value="Dispatch(stateStatus): void" style="text;strokeColor=none;fillColor=none;align=left;verticalAlign=top;spacingLeft=4;spacingRight=4;overflow=hidden;rotatable=0;points=[[0,0.5],[1,0.5]];portConstraint=eastwest;whiteSpace=wrap;html=1;" vertex="1" parent="u9B3ksHWgTqDFR15Z2h7-2">
          <mxGeometry y="70" width="140" height="50" as="geometry" />
        </mxCell>
      </root>
    </mxGraphModel>
  </diagram>
</mxfile>
